# xmcd
#
# Track frame offsets:
# 150
# 17204
# 31498
# 44191
# 56218
# 72242
# 87812
# 103724
# 118669
# 134933
# 148349
# 161808
# 178974
#
# Disc length: 2581 seconds
#
#
# Revision: 0
# Processed by: cddbd v1.5.2PL0 Copyright (c) Steve Scherf et al.
# Submitted via: FreeRIP 2.951 
#
DISCID=d40a130d
DTITLE=Terceira Dimensão - Sorte ou destino
DYEAR=2007
DGENRE=Sertanejo
TTITLE0=Sorte Ou destino
TTITLE1=Amigos
TTITLE2=Chorei de saudade
TTITLE3=fotografia
TTITLE4=Gotas de amor
TTITLE5=cama solitaria
TTITLE6=você me enfeitiçou
TTITLE7=tá na cara
TTITLE8=de corpo e coração
TTITLE9=beijo bom
TTITLE10=esqueça de mim
TTITLE11=filho do coração
TTITLE12=linda menina
EXTD=
EXTT0=
EXTT1=
EXTT2=
EXTT3=
EXTT4=
EXTT5=
EXTT6=
EXTT7=
EXTT8=
EXTT9=
EXTT10=
EXTT11=
EXTT12=
PLAYORDER=
